<svg width="17" height="16" viewBox="0 0 17 16" fill="none" xmlns="http://www.w3.org/2000/svg">
<path fill-rule="evenodd" clip-rule="evenodd" d="M1.84857 3.63636C0.826348 3.63636 0 2.82109 0 1.81745C0 0.813818 0.827826 0 1.84857 0C2.86709 0 3.69565 0.815273 3.69565 1.81745C3.69565 2.82109 2.86709 3.63636 1.84857 3.63636ZM3.69565 16H0V5.09094H3.69565V16ZM13.447 16H17V10.0124C17 7.07274 16.3348 4.81165 12.7353 4.81165C11.0057 4.81165 9.846 5.71637 9.37148 6.57455H9.32343V5.08292H5.91309V16H9.46535V10.5993C9.46535 9.17528 9.74991 7.79637 11.6 7.79637C13.4227 7.79637 13.447 9.42474 13.447 10.6909V16Z" fill="#7A939C"/>
</svg>
