<svg width="19" height="16" viewBox="0 0 19 16" fill="none" xmlns="http://www.w3.org/2000/svg">
<path d="M19 1.89389C18.3007 2.21572 17.5495 2.4323 16.761 2.52998C17.5663 2.0302 18.1838 1.23887 18.4746 0.295329C17.7219 0.758011 16.8874 1.09423 15.9988 1.27597C15.2878 0.4907 14.275 0 13.1541 0C11.0013 0 9.2563 1.80908 9.2563 4.03919C9.2563 4.35572 9.29137 4.66468 9.35714 4.95925C6.11776 4.79114 3.24595 3.18273 1.32264 0.738322C0.987962 1.33504 0.795777 2.02868 0.795777 2.77003C0.795777 4.17095 1.4834 5.40754 2.5291 6.13148C1.89043 6.11027 1.28903 5.92853 0.763624 5.62639C0.763624 5.64381 0.763624 5.65971 0.763624 5.67713C0.763624 7.63462 2.10673 9.26726 3.89047 9.63756C3.56382 9.72994 3.21891 9.77917 2.86304 9.77917C2.6124 9.77917 2.3676 9.75342 2.13011 9.70723C2.62628 11.3118 4.06584 12.4803 5.77139 12.5128C4.43779 13.5965 2.75709 14.2424 0.930234 14.2424C0.616015 14.2424 0.30545 14.2235 0 14.1856C1.72528 15.3313 3.77355 16 5.97527 16C13.1453 16 17.065 9.84505 17.065 4.50717C17.065 4.33224 17.0613 4.15808 17.054 3.98467C17.8162 3.41445 18.4775 2.70339 19 1.89389Z" fill="#7A939C"/>
</svg>
