<svg width="40" height="40" viewBox="0 0 40 40" fill="none" xmlns="http://www.w3.org/2000/svg">
<ellipse cx="20" cy="20" rx="20" ry="20" fill="#00B7BD"/>
<path fill-rule="evenodd" clip-rule="evenodd" d="M24.3764 19.0135C24.425 15.9879 26.444 14.375 28.948 14.375C31.4824 14.375 33.5438 16.1576 33.5438 18.7043V20.1838C33.5438 20.7598 33.1619 21.1479 32.5798 21.1479H27.4262V21.2995C27.4262 22.8275 28.0932 23.555 29.4027 23.555C30.3728 23.555 31.1429 23.3853 31.5734 23.2762C32.1312 23.1306 32.5616 23.361 32.6889 23.9007L32.8405 24.5252C32.9921 25.1497 32.7132 25.6227 32.1736 25.7925C31.5734 25.9623 30.7973 26.1563 29.4027 26.1563C26.3954 26.1563 24.3764 24.4645 24.3764 21.3055V21.1539H21.6541L21.5874 22.015C21.3934 24.6344 19.6958 26.1563 17.2705 26.1563C15.979 26.1563 15.0393 25.5984 14.4572 24.6767C13.8751 25.5984 12.9293 26.1563 11.6439 26.1563C9.24293 26.1563 7.54529 24.5676 7.35127 22.015L6.87835 15.618C6.83591 15.042 7.1997 14.654 7.78176 14.654H8.93984C9.52184 14.654 9.88566 15.0359 9.92812 15.618L10.3768 21.8027C10.4435 22.8092 10.8739 23.5187 11.7107 23.5187C12.5291 23.5187 12.9779 22.7425 12.9779 21.7785V16.3456C12.9779 15.7695 13.3598 15.3815 13.9419 15.3815H14.9969C15.5729 15.3815 15.9609 15.7635 15.9609 16.3456V21.7785C15.9609 22.7425 16.4095 23.5187 17.228 23.5187C18.0648 23.5187 18.4952 22.8092 18.5801 21.8027L19.053 15.5331C19.0955 14.9571 19.4592 14.654 20.0413 14.654H21.1994C21.7754 14.654 22.121 15.0359 22.0785 15.618L21.8178 19.0135H24.3764ZM27.4202 18.7104V19.0135H30.4638V18.7104C30.4638 17.7463 29.906 16.9702 28.942 16.9702C28.0446 16.9702 27.4202 17.722 27.4202 18.7104Z" fill="white"/>
</svg>
