<svg width="110" height="40" viewBox="0 0 110 40" fill="none" xmlns="http://www.w3.org/2000/svg">
<ellipse cx="20" cy="20" rx="20" ry="20" fill="#00B7BD"/>
<path fill-rule="evenodd" clip-rule="evenodd" d="M24.3764 19.0135C24.425 15.9879 26.444 14.375 28.948 14.375C31.4824 14.375 33.5438 16.1576 33.5438 18.7043V20.1838C33.5438 20.7598 33.1619 21.1479 32.5798 21.1479H27.4262V21.2995C27.4262 22.8275 28.0932 23.555 29.4027 23.555C30.3728 23.555 31.1429 23.3853 31.5734 23.2762C32.1312 23.1306 32.5616 23.361 32.6889 23.9007L32.8405 24.5252C32.9921 25.1497 32.7132 25.6227 32.1736 25.7925C31.5734 25.9623 30.7973 26.1563 29.4027 26.1563C26.3954 26.1563 24.3764 24.4645 24.3764 21.3055V21.1539H21.6541L21.5874 22.015C21.3934 24.6344 19.6958 26.1563 17.2705 26.1563C15.979 26.1563 15.0393 25.5984 14.4572 24.6767C13.8751 25.5984 12.9293 26.1563 11.6439 26.1563C9.24293 26.1563 7.54529 24.5676 7.35127 22.015L6.87835 15.618C6.83591 15.042 7.1997 14.654 7.78176 14.654H8.93984C9.52184 14.654 9.88566 15.0359 9.92812 15.618L10.3768 21.8027C10.4435 22.8092 10.8739 23.5187 11.7107 23.5187C12.5291 23.5187 12.9779 22.7425 12.9779 21.7785V16.3456C12.9779 15.7695 13.3598 15.3815 13.9419 15.3815H14.9969C15.5729 15.3815 15.9609 15.7635 15.9609 16.3456V21.7785C15.9609 22.7425 16.4095 23.5187 17.228 23.5187C18.0648 23.5187 18.4952 22.8092 18.5801 21.8027L19.053 15.5331C19.0955 14.9571 19.4592 14.654 20.0413 14.654H21.1994C21.7754 14.654 22.121 15.0359 22.0785 15.618L21.8178 19.0135H24.3764ZM27.4202 18.7104V19.0135H30.4638V18.7104C30.4638 17.7463 29.906 16.9702 28.942 16.9702C28.0446 16.9702 27.4202 17.722 27.4202 18.7104Z" fill="white"/>
<path d="M93.0419 12.2102C93.0419 11.547 93.4101 11.056 94.0974 10.9574L95.3001 10.785C96.0365 10.6864 96.5528 11.1048 96.5528 11.8407V27.803C96.5528 28.4663 96.1101 28.9085 95.4474 28.9085H94.1465C93.4828 28.9085 93.041 28.4663 93.041 27.803V12.2102H93.0419Z" fill="#00B7BD"/>
<path fill-rule="evenodd" clip-rule="evenodd" d="M104.328 15.7468C101.726 15.7468 99.2461 17.5144 99.2461 21.1495H99.247V23.8514C99.247 27.2404 101.726 29.2292 104.623 29.2292C107.52 29.2292 110 27.2404 110 23.8514V12.039C110 11.3758 109.558 10.9336 108.894 10.9336H107.593C106.931 10.9336 106.488 11.3758 106.488 12.039V16.3363C105.972 16.0415 105.113 15.7468 104.328 15.7468ZM106.489 23.7279C106.489 25.423 105.703 26.2575 104.623 26.2575C103.543 26.2575 102.732 25.423 102.734 23.7279V21.272C102.734 19.4057 103.568 18.7175 104.649 18.7175C105.262 18.7175 105.9 18.9137 106.489 19.1597V23.7279Z" fill="#00B7BD"/>
<path fill-rule="evenodd" clip-rule="evenodd" d="M80.0103 21.0508C80.0642 17.5942 82.3741 15.7466 85.237 15.7466C88.1342 15.7466 90.4907 17.7852 90.4889 20.7061V22.4011C90.4889 23.0644 90.0467 23.5066 89.3836 23.5066H83.4916V23.6789C83.4916 25.4228 84.2533 26.2573 85.7506 26.2573C86.8558 26.2573 87.7399 26.0601 88.2307 25.9376C88.8689 25.7653 89.3597 26.0362 89.5071 26.6497L89.6793 27.3618C89.8516 28.0738 89.533 28.6146 88.9187 28.8108C88.2317 29.0069 87.3477 29.228 85.7517 29.228C82.3149 29.228 80.0072 27.288 80.0072 23.6779V23.5056H76.8962L76.8204 24.4875C76.6004 27.4832 74.66 29.227 71.8863 29.227C70.4139 29.227 69.3336 28.5887 68.6705 27.533C68.0085 28.5887 66.9283 29.227 65.4548 29.227C62.705 29.227 60.7655 27.4095 60.5445 24.4875L60.0039 17.1697C59.9551 16.5064 60.3722 16.0642 61.0353 16.0642H62.3604C63.0235 16.0642 63.4407 16.5064 63.4894 17.1697L64.0051 24.2426C64.0789 25.3969 64.5697 26.2075 65.5274 26.2075C66.4603 26.2075 66.9761 25.3241 66.9761 24.2187V18.0052C66.9761 17.3419 67.4181 16.8998 68.0811 16.8998H69.2828C69.9459 16.8998 70.3879 17.3419 70.3879 18.0052V24.2187C70.3879 25.3231 70.9036 26.2075 71.8365 26.2075C72.7933 26.2075 73.2841 25.3969 73.3826 24.2426L73.9233 17.0721C73.9721 16.4089 74.3892 16.0652 75.0523 16.0652H76.3784C77.0414 16.0652 77.4337 16.5074 77.3849 17.1707L77.0861 21.0508H80.0103ZM83.4947 21.0518H86.9803H86.9814V20.7082C86.9814 19.6038 86.3432 18.7194 85.2381 18.7194C84.2066 18.7194 83.4947 19.5789 83.4947 20.7082V21.0518Z" fill="#00B7BD"/>
</svg>
